<svg width="95" height="34" viewBox="0 0 95 34" fill="none" xmlns="http://www.w3.org/2000/svg">
<path fill-rule="evenodd" clip-rule="evenodd" d="M94.3349 19.8604C94.3221 19.7269 94.2906 19.5959 94.2414 19.4711C93.9269 18.6535 92.4957 19.4159 92.007 19.6207C91.1273 19.9896 90.121 20.4758 89.147 20.197C88.8776 20.1197 88.9566 19.8902 89.147 19.7729C89.2422 19.7151 91.7435 18.2999 92.4795 15.1636C93.6575 10.1464 90.0428 8.7508 88.6167 8.58166C87.1667 8.40998 85.5493 8.63351 84.8677 8.90804C82.9359 9.68404 82.4319 11.4094 82.2984 12.443C82.1157 13.8641 82.0945 16.3442 81.9185 17.4602C81.8029 18.1954 81.2556 19.3114 80.1779 19.2051C78.0982 19.0003 77.1429 18.2022 77.2092 16.8916C77.2551 15.9702 77.2423 15.7866 77.5322 13.7434C77.7812 11.9925 77.9384 11.5752 77.9384 11.1748C77.9384 10.0283 76.3975 9.79708 75.8825 10.313C75.4847 10.7116 75.3853 11.525 75.2858 12.8985C75.1924 14.1896 74.9943 15.8691 74.7385 16.8933C74.3407 18.4886 74.181 18.6051 73.818 19.0615C73.0642 20.01 71.6712 19.7159 70.9912 19.0691C70.5918 18.6883 70.5374 18.3509 70.6147 17.2332C70.6921 16.1156 70.8748 14.1683 71.1315 12.1378C71.355 10.3614 71.2012 10.0946 70.6555 9.5965C70.1481 9.13243 68.2044 9.20127 67.3043 9.20127C65.9113 9.20127 65.9946 9.86423 65.9028 12.1251C65.8629 13.1119 65.817 14.6095 65.7184 15.7688C65.5586 17.6557 61.9576 19.0751 60.3019 18.9901C58.586 18.9017 58.4211 15.6982 58.3131 14.9528C58.2035 14.2083 58.1602 7.77932 58.3454 7.56088C58.4772 7.40789 59.5098 7.2906 60.6869 7.06026C63.2936 6.5503 63.6684 6.21542 63.6718 5.39947C63.6735 4.99915 63.648 4.43904 63.2044 4.2886C62.9443 4.2002 62.2695 4.09991 61.3745 3.99451C58.7933 3.69023 58.4296 3.78373 58.4151 3.4565C58.3905 2.88364 58.4449 1.78126 58.399 1.34694C58.2868 0.279409 57.0357 -0.0792671 55.6266 0.0142267C55.3487 0.0320756 54.9636 0.12217 54.9331 0.494445C54.9025 0.867571 54.905 1.15485 54.86 1.78636C54.7605 3.18962 54.7325 3.34176 54.1885 3.33921C53.7041 3.33666 49.6738 2.98053 48.8995 3.22872C48.1244 3.4769 48.1559 4.00471 48.0938 4.26905C48.0318 4.53253 48.1703 6.11598 48.2485 6.79933C48.3259 7.48184 48.4754 8.41082 48.5681 8.55022C48.6616 8.69046 48.9522 9.08653 49.7614 8.98539C52.51 8.64116 54.3432 8.22554 54.7155 8.13289C55.0869 8.0394 55.1294 7.99265 55.1336 8.28758C55.1353 8.45502 55.205 11.8115 55.2169 12.8084C55.2365 14.5134 55.5246 19.4524 50.93 20.2182C49.0185 20.537 47.2269 19.9803 46.4119 19.0819C45.9495 18.5719 46.1764 18.5056 46.3804 18.1741C46.6898 17.6701 49.2718 14.6367 47.1079 11.4902C45.8322 9.63389 42.7725 9.48685 41.6617 9.96877C40.8008 10.3419 40.1047 11.4987 39.9704 12.9096C39.5556 17.2613 42.0459 19.9531 42.1428 20.1188C42.2584 20.3177 41.8232 20.9585 40.3019 21.1812C38.2621 21.4804 35.1302 19.0198 35.2109 18.6994C35.2508 18.5464 36.6379 16.2745 36.671 14.0791C36.6821 13.332 36.4356 12.3486 35.9248 11.355C35.4132 10.3614 33.8034 8.82815 32.0611 9.16473C27.9612 9.95517 28.4286 14.006 28.7125 15.1118C29.3023 17.3981 30.6834 19.4159 30.9087 19.8196C31.2155 20.3678 22.2336 23.9325 21.886 20.5956C21.5401 17.2876 26.4509 10.1549 26.0642 7.38749C25.7157 4.89461 24.0397 4.37274 22.5821 4.34724C21.1653 4.32174 20.7913 4.54783 20.312 4.82661C20.0358 4.98725 19.6388 5.30513 19.0881 4.77986C18.7218 4.43054 18.4796 4.18575 18.092 3.87552C17.8957 3.71828 17.5812 3.51855 17.0543 3.4412C16.5273 3.36386 15.8457 3.4412 15.4122 3.62734C14.9788 3.81433 14.6371 4.13986 14.281 4.45009C13.9241 4.76031 13.0206 5.77515 12.1783 5.40117C11.8129 5.23883 10.5746 4.61922 9.68215 4.2325C7.95769 3.48455 5.47085 4.69572 4.5759 6.29021C3.24239 8.66326 0.611917 17.9854 0.21416 19.2145C-0.679946 21.9751 1.34454 24.2257 4.077 24.0965C5.23118 24.0413 6.00035 23.6189 6.72957 22.2896C7.15112 21.5221 11.1117 11.1578 11.4058 10.6615C11.6199 10.3003 12.3322 9.82513 12.9356 10.1345C13.5407 10.4456 13.6606 11.0932 13.5713 11.7027C13.4269 12.6886 10.6341 19.0122 10.527 19.727C10.3442 20.9441 10.9213 21.6207 12.1817 21.687C13.0452 21.732 13.9062 21.4209 14.5895 20.1299C14.972 19.4083 19.3754 10.5697 19.7655 9.97982C20.1938 9.33216 20.5389 9.11883 20.9741 9.14178C21.3132 9.15878 21.8546 9.24632 21.7186 10.2629C21.586 11.259 18.0453 17.7449 17.673 19.3326C17.1095 21.7413 18.6513 24.9813 22.781 25.1301C24.8326 25.2049 29.5819 24.309 32.2575 22.2768C33.2289 21.5391 32.9722 21.4753 33.5774 22.0125C34.4485 22.7851 36.0651 23.873 37.6569 23.873C41.2716 23.873 43.9114 21.6122 44.0313 21.5306C44.0501 21.5177 44.0729 21.512 44.0956 21.5147C44.1182 21.5173 44.1392 21.5281 44.1545 21.545C44.3738 21.783 46.615 23.0333 48.1856 23.0851C51.9244 23.2084 54.1384 21.1302 54.9747 20.152C55.4346 19.6138 55.8637 19.0499 56.2598 18.4631C56.2711 18.4464 56.286 18.4325 56.3035 18.4223C56.3209 18.4122 56.3405 18.4062 56.3606 18.4047C56.3807 18.4033 56.4009 18.4064 56.4197 18.4138C56.4384 18.4213 56.4552 18.4329 56.4688 18.4478C56.6924 18.6943 58.3786 21.7983 61.7281 21.3699C63.5962 21.1311 66.3745 19.5519 66.5692 19.3386C66.5791 19.3273 66.5918 19.3189 66.606 19.3142C66.6202 19.3094 66.6354 19.3085 66.65 19.3115C66.6647 19.3146 66.6783 19.3214 66.6895 19.3314C66.7006 19.3413 66.709 19.3541 66.7137 19.3683C66.8114 19.6386 67.2389 21.1617 68.9515 22.3729C70.3555 23.3664 73.0582 23.5653 74.2574 22.9049C75.2518 22.3576 75.6505 22.0074 76.3465 21.3104C76.6457 21.0104 77.1012 20.707 77.9223 20.8812C78.8402 21.0758 81.2658 21.5059 81.4205 21.5799C81.5947 21.6623 81.6219 21.9793 81.5701 22.3108C81.4868 22.8327 81.2896 24.6618 81.089 26.3693C80.8876 28.0768 80.2442 33.774 81.769 33.9848C82.6903 34.1123 83.49 33.2385 83.7016 32.386C84.232 30.2467 84.3289 27.8388 84.6773 25.7735C85.0938 23.3146 85.2587 22.6253 85.4083 22.3508C85.5323 22.123 85.5323 22.1765 87.25 22.3227C88.4399 22.4247 89.4054 22.5904 90.8392 22.3899C92.0274 22.2233 94.4658 21.3223 94.3349 19.8604ZM34.9287 14.3341C34.8718 15.139 34.6653 15.6489 34.2394 16.3901C33.9734 16.8525 33.6981 16.5065 33.5383 16.2779C33.3088 15.9498 32.1359 13.0957 33.0317 12.5067C33.2842 12.341 33.7847 12.2458 34.1468 12.4489C34.5089 12.6512 34.7273 12.9461 34.8267 13.2751C34.9287 13.6091 34.9661 13.7961 34.9287 14.3341ZM46.0557 14.7489C45.9512 15.6753 45.5585 16.1997 45.4141 16.3944C45.1582 16.7377 45.0554 16.8729 44.8106 16.6238C44.6117 16.4215 43.8681 14.9069 43.761 13.9083C43.7023 13.3711 43.8511 12.6036 44.3015 12.4234C44.7758 12.2339 45.256 12.3197 45.5934 12.7608C46.1229 13.4552 46.1305 14.0902 46.0557 14.7489ZM86.4358 18.809C85.8774 19.0385 85.6343 18.8983 85.6666 17.9744C85.6734 17.7755 86.5701 13.1408 88.2844 12.301C88.7705 12.063 89.2635 12.0732 89.6051 12.454C90.2511 13.1739 90.0811 14.2831 89.5949 15.2945C88.8912 16.7624 87.2033 18.4937 86.4358 18.809Z" fill="#F64060"/>
</svg>
