<svg width="17" height="17" viewBox="0 0 17 17" fill="none" xmlns="http://www.w3.org/2000/svg">
<path fill-rule="evenodd" clip-rule="evenodd" d="M8.33333 15.4167C9.1025 15.4167 10.0123 14.8905 10.797 13.5827C11.0265 13.2003 11.2334 12.7673 11.4109 12.2917H5.25574C5.43323 12.7673 5.6402 13.2003 5.86967 13.5827C6.65433 14.8905 7.56417 15.4167 8.33333 15.4167ZM4.88265 11.0417C4.69152 10.2133 4.58333 9.30058 4.58333 8.33333C4.58333 7.36608 4.69152 6.45342 4.88265 5.625H11.784C11.9752 6.45342 12.0833 7.36608 12.0833 8.33333C12.0833 9.30058 11.9752 10.2133 11.784 11.0417H4.88265ZM12.7343 12.2917C12.4492 13.1707 12.0719 13.9546 11.6242 14.6074C12.6654 14.0602 13.5537 13.2613 14.2083 12.2917H12.7343ZM14.8804 11.0417H13.0633C13.2383 10.1925 13.3333 9.28142 13.3333 8.33333C13.3333 7.38525 13.2383 6.47413 13.0633 5.625H14.8804C15.226 6.45935 15.4167 7.37408 15.4167 8.33333C15.4167 9.29258 15.226 10.2073 14.8804 11.0417ZM3.60332 11.0417H1.78621C1.44068 10.2073 1.25 9.29258 1.25 8.33333C1.25 7.37408 1.44068 6.45935 1.78621 5.625H3.60332C3.42833 6.47413 3.33333 7.38525 3.33333 8.33333C3.33333 9.28142 3.42833 10.1925 3.60332 11.0417ZM2.45836 12.2917H3.93231C4.21753 13.1707 4.59477 13.9546 5.04252 14.6074C4.00128 14.0602 3.11295 13.2613 2.45836 12.2917ZM5.25574 4.375H11.4109C11.2334 3.89943 11.0265 3.46633 10.797 3.0839C10.0123 1.77613 9.1025 1.25 8.33333 1.25C7.56417 1.25 6.65433 1.77613 5.86967 3.0839C5.6402 3.46633 5.43323 3.89943 5.25574 4.375ZM12.7343 4.375H14.2083C13.5537 3.40535 12.6654 2.60648 11.6242 2.05922C12.0719 2.71211 12.4492 3.496 12.7343 4.375ZM5.04252 2.05922C4.59477 2.71212 4.21752 3.496 3.93231 4.375H2.45835C3.11295 3.40535 4.00128 2.60648 5.04252 2.05922ZM8.33333 0C12.9357 0 16.6667 3.73096 16.6667 8.33333C16.6667 12.9357 12.9357 16.6667 8.33333 16.6667C3.73096 16.6667 0 12.9357 0 8.33333C0 3.73096 3.73096 0 8.33333 0Z" fill="#212121"/>
</svg>
