<svg width="135" height="40" viewBox="0 0 135 40" fill="none" xmlns="http://www.w3.org/2000/svg">
<g clip-path="url(#clip0_4_7332)">
<path d="M130 0H5C2.23858 0 0 2.23858 0 5V35C0 37.7614 2.23858 40 5 40H130C132.761 40 135 37.7614 135 35V5C135 2.23858 132.761 0 130 0Z" fill="black"/>
<path d="M130 0.8C131.114 0.8 132.182 1.2425 132.97 2.03015C133.758 2.8178 134.2 3.88609 134.2 5V35C134.2 36.1139 133.758 37.1822 132.97 37.9698C132.182 38.7575 131.114 39.2 130 39.2H5C3.88609 39.2 2.8178 38.7575 2.03015 37.9698C1.2425 37.1822 0.8 36.1139 0.8 35V5C0.8 3.88609 1.2425 2.8178 2.03015 2.03015C2.8178 1.2425 3.88609 0.8 5 0.8H130ZM130 0H5C3.67392 0 2.40215 0.526784 1.46447 1.46447C0.526784 2.40215 0 3.67392 0 5V35C0 36.3261 0.526784 37.5979 1.46447 38.5355C2.40215 39.4732 3.67392 40 5 40H130C131.326 40 132.598 39.4732 133.536 38.5355C134.473 37.5979 135 36.3261 135 35V5C135 3.67392 134.473 2.40215 133.536 1.46447C132.598 0.526784 131.326 0 130 0Z" fill="#A6A6A6"/>
<path d="M47.4201 10.2405C47.4371 10.6073 47.3794 10.9737 47.2505 11.3175C47.1215 11.6613 46.9241 11.9753 46.6701 12.2405C46.3865 12.5351 46.044 12.7666 45.665 12.92C45.2859 13.0733 44.8788 13.1451 44.4701 13.1305C43.8501 13.1256 43.2453 12.9379 42.7315 12.5909C42.2177 12.2438 41.8178 11.7528 41.5818 11.1794C41.3458 10.606 41.2843 9.97573 41.405 9.36755C41.5257 8.75937 41.8231 8.20032 42.2601 7.76046C42.5473 7.46725 42.8916 7.23608 43.2718 7.08128C43.6519 6.92647 44.0598 6.85132 44.4701 6.86046C44.8929 6.85905 45.3115 6.94413 45.7001 7.11046C46.062 7.25642 46.3841 7.48602 46.6401 7.78046L46.1101 8.31046C45.9105 8.07306 45.6585 7.88532 45.3738 7.7621C45.0892 7.63888 44.7798 7.58354 44.4701 7.60046C44.1578 7.59893 43.8483 7.66049 43.5603 7.78145C43.2723 7.90241 43.0117 8.08028 42.7942 8.3044C42.5766 8.52852 42.4065 8.79426 42.2941 9.08571C42.1817 9.37715 42.1293 9.68829 42.1401 10.0005C42.1336 10.4666 42.2652 10.9243 42.5184 11.3157C42.7717 11.7071 43.1352 12.0147 43.563 12.1998C43.9909 12.3848 44.464 12.439 44.9227 12.3555C45.3813 12.272 45.8049 12.0545 46.1401 11.7305C46.4478 11.397 46.6253 10.964 46.6401 10.5105H44.4701V9.79046H47.3801C47.4068 9.93898 47.4202 10.0896 47.4201 10.2405ZM52.0001 7.74046H49.3001V9.64046H51.7601V10.3605H49.3001V12.2605H52.0001V13.0005H48.5001V7.00046H52.0001V7.74046ZM55.2801 13.0005H54.5101V7.74046H52.8301V7.00046H57.0001V7.74046H55.2801V13.0005ZM59.9401 13.0005V7.00046H60.7101V13.0005H59.9401ZM64.1301 13.0005H63.3601V7.74046H61.6801V7.00046H65.8001V7.74046H64.1301V13.0005ZM73.6101 12.2205C73.0255 12.8018 72.2346 13.1282 71.4101 13.1282C70.5857 13.1282 69.7947 12.8018 69.2101 12.2205C68.6419 11.619 68.3253 10.8229 68.3253 9.99546C68.3253 9.16802 68.6419 8.37194 69.2101 7.77046C69.4983 7.48021 69.841 7.24984 70.2186 7.09263C70.5962 6.93543 71.0011 6.85449 71.4101 6.85449C71.8191 6.85449 72.2241 6.93543 72.6016 7.09263C72.9792 7.24984 73.322 7.48021 73.6101 7.77046C74.1806 8.37079 74.4987 9.16731 74.4987 9.99546C74.4987 10.8237 74.1806 11.6202 73.6101 12.2205ZM69.7801 11.7205C70.213 12.1516 70.7991 12.3937 71.4101 12.3937C72.0211 12.3937 72.6072 12.1516 73.0401 11.7205C73.4674 11.2495 73.704 10.6364 73.704 10.0005C73.704 9.36457 73.4674 8.75144 73.0401 8.28046C72.6072 7.84934 72.0211 7.60729 71.4101 7.60729C70.7991 7.60729 70.213 7.84934 69.7801 8.28046C69.3529 8.75144 69.1162 9.36457 69.1162 10.0005C69.1162 10.6364 69.3529 11.2495 69.7801 11.7205ZM75.5801 13.0005V7.00046H76.5201L79.4401 11.6705V7.00046H80.2101V13.0005H79.4101L76.3601 8.11046V13.0005H75.5801Z" fill="white" stroke="white" stroke-width="0.2" stroke-miterlimit="10"/>
<path d="M68.14 21.7501C67.3003 21.754 66.4806 22.0067 65.7843 22.4761C65.088 22.9454 64.5464 23.6106 64.2278 24.3875C63.9092 25.1644 63.8279 26.0183 63.9941 26.8414C64.1604 27.6645 64.5667 28.4199 65.1619 29.0123C65.757 29.6047 66.5143 30.0075 67.3382 30.1698C68.1621 30.3322 69.0156 30.2469 69.791 29.9246C70.5664 29.6024 71.229 29.0576 71.6951 28.3592C72.1612 27.6607 72.41 26.8398 72.41 26.0001C72.4182 25.438 72.3131 24.8801 72.1012 24.3594C71.8892 23.8388 71.5747 23.3661 71.1763 22.9696C70.7778 22.5731 70.3037 22.2607 69.7821 22.0512C69.2605 21.8417 68.702 21.7393 68.14 21.7501ZM68.14 28.5801C67.6236 28.6162 67.1082 28.4961 66.661 28.2355C66.2137 27.9748 65.8552 27.5856 65.632 27.1185C65.4089 26.6514 65.3314 26.128 65.4097 25.6162C65.488 25.1045 65.7184 24.6282 66.071 24.2491C66.4236 23.8701 66.882 23.6059 67.3868 23.4909C67.8915 23.3759 68.4192 23.4153 68.9012 23.6042C69.3832 23.793 69.7973 24.1225 70.0895 24.5498C70.3818 24.9771 70.5387 25.4824 70.54 26.0001C70.5561 26.3281 70.5064 26.656 70.3937 26.9645C70.2811 27.273 70.1078 27.5558 69.8841 27.7963C69.6605 28.0367 69.3909 28.23 69.0914 28.3646C68.7918 28.4992 68.4683 28.5725 68.14 28.5801ZM58.83 21.7501C57.9899 21.7521 57.1692 22.003 56.4716 22.4712C55.774 22.9394 55.2308 23.6038 54.9107 24.3806C54.5905 25.1574 54.5078 26.0116 54.6729 26.8353C54.838 27.6591 55.2436 28.4154 55.8383 29.0088C56.4331 29.6022 57.1904 30.006 58.0145 30.1692C58.8387 30.3323 59.6927 30.2476 60.4687 29.9256C61.2447 29.6037 61.9079 29.0589 62.3744 28.3602C62.841 27.6615 63.09 26.8402 63.09 26.0001C63.0982 25.438 62.9931 24.8801 62.7812 24.3594C62.5692 23.8388 62.2547 23.3661 61.8563 22.9696C61.4578 22.5731 60.9837 22.2607 60.4621 22.0512C59.9405 21.8417 59.382 21.7393 58.82 21.7501H58.83ZM58.83 28.5801C58.3133 28.6182 57.7971 28.5 57.3486 28.2407C56.9001 27.9813 56.5401 27.593 56.3154 27.1262C56.0906 26.6594 56.0117 26.1357 56.0887 25.6234C56.1658 25.1111 56.3952 24.6339 56.7473 24.2538C57.0994 23.8737 57.5577 23.6085 58.0627 23.4925C58.5676 23.3766 59.0958 23.4154 59.5784 23.6038C60.061 23.7922 60.4757 24.1216 60.7685 24.549C61.0613 24.9764 61.2186 25.482 61.22 26.0001C61.2361 26.3281 61.1864 26.656 61.0737 26.9645C60.9611 27.273 60.7878 27.5558 60.5641 27.7963C60.3405 28.0367 60.0709 28.23 59.7714 28.3646C59.4718 28.4992 59.1483 28.5725 58.82 28.5801H58.83ZM47.74 23.0601V24.8601H52.06C51.9923 25.7079 51.6399 26.5079 51.06 27.1301C50.6278 27.5703 50.1082 27.9152 49.5347 28.1426C48.9612 28.3699 48.3464 28.4747 47.73 28.4501C46.457 28.4501 45.2361 27.9444 44.3359 27.0442C43.4357 26.144 42.93 24.9231 42.93 23.6501C42.93 22.3771 43.4357 21.1562 44.3359 20.256C45.2361 19.3558 46.457 18.8501 47.73 18.8501C48.9478 18.8302 50.1238 19.2941 51 20.1401L52.27 18.8701C51.6785 18.2711 50.9728 17.797 50.1946 17.4758C49.4165 17.1545 48.5818 16.9928 47.74 17.0001C46.851 16.9655 45.9642 17.1107 45.1326 17.4271C44.3011 17.7434 43.542 18.2244 42.9008 18.8411C42.2596 19.4578 41.7494 20.1977 41.401 21.0163C41.0526 21.8349 40.873 22.7154 40.873 23.6051C40.873 24.4948 41.0526 25.3753 41.401 26.1939C41.7494 27.0125 42.2596 27.7523 42.9008 28.3691C43.542 28.9858 44.3011 29.4668 45.1326 29.7831C45.9642 30.0995 46.851 30.2447 47.74 30.2101C48.596 30.2488 49.4503 30.1037 50.2454 29.7846C51.0406 29.4655 51.7582 28.9797 52.35 28.3601C53.3977 27.209 53.9571 25.6959 53.91 24.1401C53.9132 23.7611 53.8797 23.3826 53.81 23.0101L47.74 23.0601ZM93.05 24.4601C92.7892 23.6928 92.3015 23.0229 91.6515 22.5389C91.0015 22.055 90.2198 21.7799 89.41 21.7501C88.863 21.749 88.3216 21.8602 87.8192 22.0766C87.3169 22.2931 86.8643 22.6103 86.4894 23.0086C86.1145 23.407 85.8253 23.8779 85.6396 24.3925C85.454 24.907 85.3759 25.4542 85.41 26.0001C85.3979 26.559 85.4985 27.1146 85.7059 27.6338C85.9133 28.1529 86.2232 28.625 86.6171 29.0217C87.0111 29.4184 87.4808 29.7316 87.9985 29.9427C88.5161 30.1537 89.071 30.2583 89.63 30.2501C90.3295 30.2539 91.019 30.0841 91.6368 29.756C92.2547 29.4279 92.7814 28.9517 93.17 28.3701L91.72 27.3701C91.5036 27.7309 91.1972 28.0293 90.8309 28.2361C90.4645 28.443 90.0507 28.5512 89.63 28.5501C89.1968 28.5666 88.7687 28.4524 88.4013 28.2223C88.034 27.9923 87.7443 27.657 87.57 27.2601L93.26 24.9101L93.05 24.4601ZM87.25 25.8801C87.2297 25.5708 87.2714 25.2605 87.3725 24.9675C87.4737 24.6745 87.6322 24.4046 87.839 24.1737C88.0457 23.9427 88.2965 23.7554 88.5765 23.6225C88.8566 23.4897 89.1604 23.4141 89.47 23.4001C89.7926 23.3788 90.1143 23.4528 90.3952 23.6128C90.6761 23.7728 90.9039 24.0118 91.05 24.3001L87.25 25.8801ZM82.63 30.0001H84.5V17.5001H82.63V30.0001ZM79.57 22.7001H79.5C79.2182 22.385 78.8729 22.133 78.4869 21.9607C78.1009 21.7883 77.6828 21.6995 77.26 21.7001C76.1672 21.7531 75.1367 22.2245 74.382 23.0167C73.6273 23.8088 73.2063 24.861 73.2063 25.9551C73.2063 27.0492 73.6273 28.1014 74.382 28.8935C75.1367 29.6857 76.1672 30.1571 77.26 30.2101C77.6838 30.2172 78.1039 30.1314 78.491 29.9586C78.878 29.7858 79.2224 29.5303 79.5 29.2101H79.56V29.8201C79.56 31.4501 78.69 32.3201 77.29 32.3201C76.8237 32.3092 76.3712 32.1598 75.9901 31.8909C75.6091 31.622 75.3166 31.2457 75.15 30.8101L73.52 31.4901C73.8268 32.2365 74.3496 32.8741 75.0213 33.3213C75.6931 33.7686 76.4831 34.0049 77.29 34.0001C79.48 34.0001 81.29 32.7101 81.29 29.5701V22.0001H79.57V22.7001ZM77.43 28.5801C76.785 28.5232 76.1846 28.2268 75.7473 27.7493C75.31 27.2717 75.0674 26.6476 75.0674 26.0001C75.0674 25.3525 75.31 24.7285 75.7473 24.2509C76.1846 23.7734 76.785 23.4769 77.43 23.4201C77.7498 23.4365 78.0631 23.5168 78.3515 23.6561C78.6398 23.7955 78.8973 23.9912 79.1089 24.2316C79.3204 24.472 79.4817 24.7524 79.5832 25.0561C79.6847 25.3598 79.7244 25.6808 79.7 26.0001C79.7273 26.3208 79.6893 26.6437 79.5882 26.9492C79.4871 27.2548 79.3251 27.5367 79.112 27.7779C78.8988 28.0191 78.639 28.2145 78.3482 28.3524C78.0574 28.4903 77.7416 28.5677 77.42 28.5801H77.43ZM101.81 17.5001H97.34V30.0001H99.21V25.2601H101.82C102.353 25.2984 102.888 25.2265 103.392 25.0488C103.896 24.8712 104.358 24.5916 104.749 24.2276C105.14 23.8636 105.452 23.4228 105.665 22.9329C105.879 22.443 105.989 21.9144 105.989 21.3801C105.989 20.8458 105.879 20.3172 105.665 19.8273C105.452 19.3374 105.14 18.8966 104.749 18.5326C104.358 18.1686 103.896 17.889 103.392 17.7114C102.888 17.5337 102.353 17.4618 101.82 17.5001H101.81ZM101.81 23.5001H99.2V19.2401H101.85C102.419 19.2401 102.964 19.4661 103.367 19.8684C103.769 20.2706 103.995 20.8162 103.995 21.3851C103.995 21.954 103.769 22.4996 103.367 22.9018C102.964 23.3041 102.419 23.5301 101.85 23.5301L101.81 23.5001ZM113.34 21.7001C112.659 21.6594 111.981 21.8185 111.39 22.1578C110.798 22.4971 110.319 23.0019 110.01 23.6101L111.67 24.3001C111.834 23.9984 112.082 23.7509 112.383 23.5875C112.685 23.4242 113.028 23.3521 113.37 23.3801C113.607 23.3524 113.848 23.3722 114.078 23.4384C114.307 23.5046 114.521 23.6159 114.708 23.7658C114.894 23.9157 115.048 24.1011 115.162 24.3113C115.276 24.5215 115.346 24.7523 115.37 24.9901V25.1201C114.769 24.8021 114.1 24.6372 113.42 24.6401C111.63 24.6401 109.82 25.6401 109.82 27.4501C109.838 27.836 109.933 28.2145 110.099 28.5631C110.265 28.9118 110.5 29.2235 110.789 29.4799C111.078 29.7363 111.416 29.9321 111.782 30.0558C112.148 30.1795 112.535 30.2286 112.92 30.2001C113.391 30.2339 113.862 30.1403 114.285 29.9292C114.707 29.7181 115.065 29.3971 115.32 29.0001H115.38V30.0001H117.18V25.1901C117.18 23.0001 115.52 21.7301 113.39 21.7301L113.34 21.7001ZM113.11 28.5501C112.5 28.5501 111.65 28.2401 111.65 27.4901C111.65 26.4901 112.71 26.1601 113.65 26.1601C114.244 26.1454 114.831 26.2905 115.35 26.5801C115.287 27.1215 115.031 27.6221 114.629 27.9896C114.227 28.3571 113.705 28.5668 113.16 28.5801L113.11 28.5501ZM123.74 22.0001L121.6 27.4201H121.54L119.32 22.0001H117.32L120.65 29.5801L118.75 33.7901H120.7L125.82 22.0001H123.74ZM106.93 30.0001H108.8V17.5001H106.93V30.0001Z" fill="white"/>
<path d="M10.4402 7.53973C10.1143 7.93084 9.9497 8.43153 9.98014 8.93973V31.0597C9.9497 31.5679 10.1143 32.0686 10.4402 32.4597L10.5102 32.5297L22.9002 20.1497V19.8597L10.5102 7.46973L10.4402 7.53973Z" fill="url(#paint0_linear_4_7332)"/>
<path d="M27.0004 24.2797L22.9004 20.1497V19.8597L27.0004 15.7197L27.0904 15.7697L32.0004 18.5597C33.4004 19.3497 33.4004 20.6497 32.0004 21.4497L27.1104 24.2297L27.0004 24.2797Z" fill="url(#paint1_linear_4_7332)"/>
<path d="M27.1204 24.22L22.9004 20L10.4404 32.46C10.7258 32.7109 11.0898 32.8541 11.4696 32.8651C11.8494 32.876 12.2211 32.754 12.5204 32.52L27.1304 24.22" fill="url(#paint2_linear_4_7332)"/>
<path d="M27.1197 15.7796L12.5097 7.47956C12.2103 7.24558 11.8387 7.12351 11.4589 7.13447C11.0791 7.14543 10.7151 7.28871 10.4297 7.53956L22.8997 19.9996L27.1197 15.7796Z" fill="url(#paint3_linear_4_7332)"/>
<path opacity="0.2" d="M27.0004 24.1299L12.5104 32.3799C12.2217 32.5958 11.8709 32.7124 11.5104 32.7124C11.1499 32.7124 10.7991 32.5958 10.5104 32.3799L10.4404 32.4499L10.5104 32.5199C10.7985 32.7373 11.1495 32.8549 11.5104 32.8549C11.8713 32.8549 12.2223 32.7373 12.5104 32.5199L27.1204 24.2199L27.0004 24.1299Z" fill="black"/>
<path opacity="0.12" d="M10.4402 32.32C10.1143 31.9289 9.9497 31.4282 9.98014 30.92V31.07C9.9497 31.5782 10.1143 32.0789 10.4402 32.47L10.5102 32.4L10.4402 32.32ZM32.0002 21.3L27.0002 24.13L27.0902 24.22L32.0002 21.44C32.2788 21.3091 32.5179 21.1071 32.6935 20.8543C32.8691 20.6014 32.9749 20.3068 33.0002 20C32.944 20.2787 32.8246 20.5408 32.6512 20.7662C32.4779 20.9915 32.2551 21.1742 32.0002 21.3Z" fill="black"/>
<path opacity="0.25" d="M12.5097 7.62043L31.9997 18.7004C32.2547 18.8262 32.4774 19.0089 32.6507 19.2342C32.8241 19.4596 32.9435 19.7217 32.9997 20.0004C32.9744 19.6936 32.8686 19.399 32.693 19.1461C32.5175 18.8933 32.2783 18.6913 31.9997 18.5604L12.5097 7.48043C11.1097 6.69043 9.96973 7.35043 9.96973 8.95043V9.10043C9.99973 7.49043 11.1197 6.83043 12.5097 7.62043Z" fill="white"/>
</g>
<defs>
<linearGradient id="paint0_linear_4_7332" x1="21.8002" y1="8.70973" x2="5.02014" y2="25.4897" gradientUnits="userSpaceOnUse">
<stop stop-color="#00A0FF"/>
<stop offset="0.01" stop-color="#00A1FF"/>
<stop offset="0.26" stop-color="#00BEFF"/>
<stop offset="0.51" stop-color="#00D2FF"/>
<stop offset="0.76" stop-color="#00DFFF"/>
<stop offset="1" stop-color="#00E3FF"/>
</linearGradient>
<linearGradient id="paint1_linear_4_7332" x1="33.8304" y1="19.9997" x2="9.64039" y2="19.9997" gradientUnits="userSpaceOnUse">
<stop stop-color="#FFE000"/>
<stop offset="0.41" stop-color="#FFBD00"/>
<stop offset="0.78" stop-color="#FFA500"/>
<stop offset="1" stop-color="#FF9C00"/>
</linearGradient>
<linearGradient id="paint2_linear_4_7332" x1="24.8304" y1="22.3" x2="2.07043" y2="45.05" gradientUnits="userSpaceOnUse">
<stop stop-color="#FF3A44"/>
<stop offset="1" stop-color="#C31162"/>
</linearGradient>
<linearGradient id="paint3_linear_4_7332" x1="7.29968" y1="0.179561" x2="17.4597" y2="10.3396" gradientUnits="userSpaceOnUse">
<stop stop-color="#32A071"/>
<stop offset="0.07" stop-color="#2DA771"/>
<stop offset="0.48" stop-color="#15CF74"/>
<stop offset="0.8" stop-color="#06E775"/>
<stop offset="1" stop-color="#00F076"/>
</linearGradient>
<clipPath id="clip0_4_7332">
<rect width="135" height="40" fill="white"/>
</clipPath>
</defs>
</svg>
