<svg width="20" height="20" viewBox="0 0 20 20" fill="none" xmlns="http://www.w3.org/2000/svg">
<path fill-rule="evenodd" clip-rule="evenodd" d="M11.5085 15.6191C12.2516 14.133 12.7524 11.9799 12.7524 9.52372C12.7524 6.50381 10.8706 3.73955 9.51247 2.16396C9.48673 2.1341 9.46573 2.12176 9.45375 2.11627C9.44077 2.11032 9.42924 2.10826 9.41907 2.10826C9.4089 2.10826 9.39735 2.11032 9.38438 2.11627C9.3724 2.12176 9.35139 2.1341 9.32566 2.16396C7.96749 3.73955 6.08573 6.50381 6.08573 9.52372C6.08573 11.9799 6.58656 14.133 7.32965 15.6191C8.11545 17.1908 8.93672 17.619 9.41907 17.619C9.90137 17.619 10.7227 17.1908 11.5085 15.6191ZM14.1735 9.16145C14.7425 9.03235 15.3042 8.95477 15.833 8.91208C16.2153 7.50276 16.1569 5.98761 15.9918 4.82781C15.9871 4.79541 15.9784 4.78018 15.9751 4.77497C15.9711 4.76879 15.9675 4.7658 15.9647 4.76407C15.9619 4.76234 15.9577 4.76033 15.9504 4.75937C15.9442 4.75856 15.9267 4.75724 15.8955 4.76698C15.1458 5.00054 14.2723 5.34596 13.4439 5.83447C13.2666 5.37977 13.0655 4.94301 12.85 4.52747C13.7778 3.99736 14.7153 3.63835 15.4706 3.40305C16.3768 3.12076 17.2722 3.68676 17.406 4.62639C17.5655 5.74589 17.6563 7.31004 17.3132 8.87237C17.3541 8.87338 17.3945 8.87457 17.4344 8.87589C18.383 8.9074 19.0424 9.73648 18.8598 10.6678C18.5264 12.3665 17.6985 14.9963 15.6652 16.6135C13.5472 18.2982 11.2283 19.1849 9.52423 19.1115C7.82007 19.1849 5.50128 18.2982 3.3832 16.6135C1.34992 14.9963 0.521968 12.3665 0.188687 10.6678C0.00595371 9.73648 0.665386 8.9074 1.61398 8.87589C1.65388 8.87457 1.69432 8.87338 1.73528 8.87237C1.39214 7.31004 1.48294 5.74589 1.64238 4.62639C1.77621 3.68676 2.67167 3.12076 3.57784 3.40305C4.28902 3.6246 5.1617 3.95584 6.0358 4.43633C5.8181 4.84909 5.61407 5.28333 5.43316 5.73579C4.65666 5.29902 3.85118 4.98449 3.15294 4.76698C3.1217 4.75724 3.10421 4.75856 3.09804 4.75937C3.09075 4.76033 3.0865 4.76234 3.08375 4.76407C3.08101 4.7658 3.07736 4.76879 3.07337 4.77497C3.06999 4.78018 3.0613 4.79541 3.05669 4.82781C2.89151 5.98761 2.83312 7.50276 3.21541 8.91208C3.67954 8.94956 4.16904 9.0139 4.66661 9.11638C4.82306 5.73196 6.88764 2.80427 8.24362 1.23122C8.87752 0.495843 9.96061 0.495842 10.5945 1.23122C11.9565 2.81124 14.0334 5.75797 14.1735 9.16145ZM12.3719 16.9958C13.3366 15.4688 13.9987 13.2103 14.1486 10.6391C15.2775 10.3349 16.4433 10.2723 17.387 10.3037C17.4198 10.3048 17.4358 10.3117 17.4414 10.3146C17.4479 10.3178 17.4513 10.3211 17.4533 10.3237C17.4553 10.3262 17.4578 10.3303 17.4595 10.3374C17.461 10.3434 17.4642 10.3607 17.4578 10.3928C17.1418 12.004 16.3979 14.2053 14.7759 15.4955C13.9605 16.1441 13.1406 16.6407 12.3719 16.9958ZM6.37738 16.8517C5.69691 16.5104 4.983 16.0607 4.27247 15.4955C2.65048 14.2053 1.90665 12.004 1.59053 10.3928C1.58423 10.3607 1.58743 10.3434 1.58891 10.3374C1.59064 10.3303 1.59311 10.3262 1.59513 10.3237C1.59714 10.3211 1.60051 10.3178 1.60707 10.3146C1.61263 10.3117 1.62871 10.3048 1.66141 10.3037C2.5458 10.2743 3.62517 10.3273 4.68637 10.5845C4.82568 13.0985 5.45425 15.3173 6.37738 16.8517Z" fill="#31775A"/>
</svg>
