<svg width="19" height="20" viewBox="0 0 19 20" fill="none" xmlns="http://www.w3.org/2000/svg">
<g clip-path="url(#clip0_2_2357)">
<path fill-rule="evenodd" clip-rule="evenodd" d="M5.07137 2.23279L6.02502 3.25464C6.06821 3.28616 6.10945 3.32209 6.1482 3.36256L7.53122 4.8067L8.67808 2.23278L5.07137 2.23279ZM3.36081 2.39852L4.60862 3.73557L0.600808 12.4472C0.444172 12.7876 0.512528 13.1894 0.772961 13.4588L2.11569 14.8484C2.1361 14.8774 2.15903 14.9052 2.18453 14.9315L5.85062 18.7116C6.15024 19.0205 6.56226 19.1948 6.99264 19.1948H11.8354C12.176 19.1948 12.4582 18.9453 12.5091 18.619C12.6082 18.5562 12.6973 18.4725 12.7697 18.3679L17.4653 11.5877C17.8533 11.0276 17.5084 10.277 16.8695 10.1731L15.7763 6.81745C15.5803 6.21569 14.8446 5.9934 14.3482 6.3859L9.89307 9.90783C9.79816 9.98283 9.72407 10.0687 9.66907 10.161H6.75078C6.71499 10.161 6.67995 10.1629 6.64571 10.1667L8.30102 6.42452C8.32999 6.35902 8.35072 6.29137 8.36344 6.22294C8.40833 6.16549 8.44729 6.10123 8.47884 6.03039L10.2086 2.14823C10.4765 1.54697 10.0364 0.869138 9.37825 0.869141L4.02543 0.869163C3.23055 0.869167 2.81848 1.8174 3.36081 2.39852ZM10.856 17.8312L6.03309 11.6281C6.02578 11.6187 6.0187 11.6093 6.01184 11.5997L4.39591 15.2529L6.8295 17.7622C6.8723 17.8063 6.93116 17.8312 6.99264 17.8312H10.856ZM1.96953 12.7347L5.61402 4.81287L6.90903 6.20049L3.37523 14.1895L1.96953 12.7347ZM7.67995 11.5246L12.0012 17.0826L15.8465 11.5301H10.4568C10.4213 11.5301 10.3866 11.5282 10.3528 11.5246H7.67995ZM15.4314 10.161H11.7716L14.6819 7.86034L15.4314 10.161Z" fill="#FFAD43"/>
</g>
<defs>
<clipPath id="clip0_2_2357">
<rect width="18.1818" height="20" fill="white"/>
</clipPath>
</defs>
</svg>
