<svg width="23" height="23" viewBox="0 0 23 23" fill="none" xmlns="http://www.w3.org/2000/svg">
<path fill-rule="evenodd" clip-rule="evenodd" d="M20.4061 15.7954C20.3561 16.8924 20.1726 17.4884 20.0204 17.8843C19.8158 18.4091 19.5716 18.7844 19.1757 19.178C18.7844 19.5716 18.4091 19.8151 17.8843 20.0175C17.4884 20.1721 16.8901 20.3561 15.7932 20.4084C14.6072 20.4606 14.2559 20.4717 11.2486 20.4717C8.2441 20.4717 7.88991 20.4606 6.704 20.4084C5.60708 20.3561 5.01163 20.1721 4.61574 20.0175C4.08813 19.8151 3.71564 19.5716 3.322 19.178C2.92557 18.7844 2.68151 18.4091 2.47969 17.8843C2.32732 17.4884 2.1411 16.8924 2.09381 15.7954C2.03601 14.6095 2.02542 14.2526 2.02542 11.2514C2.02542 8.2441 2.03601 7.88991 2.09381 6.704C2.1411 5.60708 2.32732 5.01162 2.47969 4.6124C2.68151 4.08812 2.92557 3.71505 3.322 3.32141C3.71564 2.92836 4.08813 2.68426 4.61574 2.47969C5.01163 2.32457 5.60708 2.14331 6.704 2.09106C7.88991 2.03878 8.2441 2.02542 11.2486 2.02542C14.2559 2.02542 14.6072 2.03878 15.7932 2.09106C16.8901 2.14331 17.4884 2.32457 17.8843 2.47969C18.4091 2.68426 18.7844 2.92836 19.1757 3.32141C19.5716 3.71505 19.8158 4.08812 20.0204 4.6124C20.1726 5.01162 20.3561 5.60708 20.4061 6.704C20.4613 7.88991 20.4745 8.2441 20.4745 11.2514C20.4745 14.2526 20.4613 14.6095 20.4061 15.7954ZM22.4316 6.61172C22.3766 5.41301 22.1875 4.59406 21.9067 3.88076C21.621 3.14074 21.2379 2.51359 20.6108 1.88645C19.9864 1.26209 19.3592 0.879013 18.6192 0.589913C17.9031 0.311913 17.087 0.120637 15.8878 0.0683874C14.6885 0.0105499 14.3054 0 11.2486 0C8.1946 0 7.80876 0.0105499 6.60951 0.0683874C5.41301 0.120637 4.59739 0.311913 3.87796 0.589913C3.14074 0.879013 2.51359 1.26209 1.88924 1.88645C1.26209 2.51359 0.879 3.14074 0.59045 3.88076C0.31245 4.59406 0.123425 5.41301 0.0655875 6.61172C0.0133375 7.81098 0 8.1946 0 11.2514C0 14.3054 0.0133375 14.6885 0.0655875 15.8878C0.123425 17.0842 0.31245 17.9026 0.59045 18.6192C0.879 19.3565 1.26209 19.9864 1.88924 20.6108C2.51359 21.2351 3.14074 21.621 3.87796 21.9095C4.59739 22.1875 5.41301 22.3766 6.60951 22.4316C7.80876 22.4866 8.1946 22.5 11.2486 22.5C14.3054 22.5 14.6885 22.4866 15.8878 22.4316C17.087 22.3766 17.9031 22.1875 18.6192 21.9095C19.3592 21.621 19.9864 21.2351 20.6108 20.6108C21.2379 19.9864 21.621 19.3565 21.9067 18.6192C22.1875 17.9026 22.3766 17.0842 22.4316 15.8878C22.4866 14.6885 22.5 14.3054 22.5 11.2514C22.5 8.1946 22.4866 7.81098 22.4316 6.61172ZM18.6059 5.24508C18.6059 4.4973 17.9999 3.8935 17.2549 3.8935C16.5099 3.8935 15.9032 4.4973 15.9032 5.24508C15.9032 5.9901 16.5099 6.5939 17.2549 6.5939C17.9999 6.5939 18.6059 5.9901 18.6059 5.24508ZM7.49907 11.2514C7.49907 13.3212 9.17863 14.9981 11.2486 14.9981C13.3191 14.9981 15.0009 13.3212 15.0009 11.2514C15.0009 9.17812 13.3191 7.4991 11.2486 7.4991C9.17863 7.4991 7.49907 9.17812 7.49907 11.2514ZM5.47365 11.2514C5.47365 8.06061 8.05783 5.47089 11.2486 5.47089C14.4394 5.47089 17.0264 8.06061 17.0264 11.2514C17.0264 14.4394 14.4394 17.0264 11.2486 17.0264C8.05783 17.0264 5.47365 14.4394 5.47365 11.2514Z" fill="#D9D9D9"/>
</svg>
