<svg width="15" height="17" viewBox="0 0 15 17" fill="none" xmlns="http://www.w3.org/2000/svg">
<path fill-rule="evenodd" clip-rule="evenodd" d="M9.834 0.536972C10.5499 -0.178991 11.7107 -0.178991 12.4267 0.536972L13.7231 1.83333C14.4391 2.54929 14.4391 3.7101 13.7231 4.42606L12.4267 5.72242L8.53765 1.83333L9.834 0.536972ZM7.88938 2.4815L11.7784 6.37058L4.26878 13.8803C4.09687 14.0522 3.86371 14.1488 3.62059 14.1488H0.569543C0.316406 14.1488 0.11121 13.9435 0.11121 13.6904V10.6394C0.11121 10.3962 0.207781 10.1631 0.379692 9.99123L7.88938 2.4815ZM0.6875 15.2822C0.307808 15.2822 0 15.5901 0 15.9697C0 16.3495 0.307808 16.6572 0.6875 16.6572H13.9792C14.3589 16.6572 14.6667 16.3495 14.6667 15.9697C14.6667 15.5901 14.3589 15.2822 13.9792 15.2822H0.6875Z" fill="#00798A"/>
</svg>
