<svg width="15" height="15" viewBox="0 0 15 15" fill="none" xmlns="http://www.w3.org/2000/svg">
<path fill-rule="evenodd" clip-rule="evenodd" d="M11.25 6.25C11.25 9.01142 9.01142 11.25 6.25 11.25C3.48857 11.25 1.25 9.01142 1.25 6.25C1.25 3.48857 3.48857 1.25 6.25 1.25C9.01142 1.25 11.25 3.48857 11.25 6.25ZM12.5 6.25C12.5 9.70175 9.70175 12.5 6.25 12.5C2.79822 12.5 0 9.70175 0 6.25C0 2.79822 2.79822 0 6.25 0C9.70175 0 12.5 2.79822 12.5 6.25ZM11.2247 12.1086L10.7973 11.6812C11.1173 11.4131 11.4131 11.1173 11.6812 10.7973L12.1086 11.2247L14.6086 13.7247C14.8527 13.9688 14.8527 14.3645 14.6086 14.6086C14.3645 14.8527 13.9688 14.8527 13.7247 14.6086L11.2247 12.1086Z" fill="white"/>
</svg>
