<svg width="20" height="20" viewBox="0 0 20 20" fill="none" xmlns="http://www.w3.org/2000/svg">
<path fill-rule="evenodd" clip-rule="evenodd" d="M13.3337 4.99967C13.9506 4.99967 14.4892 4.66451 14.7773 4.16634H16.667C17.1272 4.16634 17.5003 4.53944 17.5003 4.99967V6.77136C16.0627 7.14139 15.0003 8.44651 15.0003 9.99967C15.0003 11.5528 16.0627 12.8579 17.5003 13.228V14.9997C17.5003 15.4599 17.1272 15.833 16.667 15.833H14.7773C14.4892 15.3348 13.9506 14.9997 13.3337 14.9997C12.7167 14.9997 12.1782 15.3348 11.89 15.833H3.33366C2.87343 15.833 2.50033 15.4599 2.50033 14.9997V13.228C3.93802 12.8579 5.00033 11.5528 5.00033 9.99967C5.00033 8.44651 3.93802 7.14139 2.50033 6.77136V4.99967C2.50033 4.53944 2.87343 4.16634 3.33366 4.16634H11.89C12.1782 4.66451 12.7167 4.99967 13.3337 4.99967ZM15.8337 9.99967C15.8337 8.61892 16.9529 7.49967 18.3337 7.49967V4.99967C18.3337 4.0792 17.5875 3.33301 16.667 3.33301H14.167C14.167 3.79324 13.7939 4.16634 13.3337 4.16634C12.8734 4.16634 12.5003 3.79324 12.5003 3.33301H3.33366C2.41318 3.33301 1.66699 4.0792 1.66699 4.99967V7.49967C3.0477 7.49967 4.16699 8.61892 4.16699 9.99967C4.16699 11.3804 3.0477 12.4997 1.66699 12.4997V14.9997C1.66699 15.9202 2.41318 16.6663 3.33366 16.6663H12.5003C12.5003 16.2061 12.8734 15.833 13.3337 15.833C13.7939 15.833 14.167 16.2061 14.167 16.6663H16.667C17.5875 16.6663 18.3337 15.9202 18.3337 14.9997V12.4997C16.9529 12.4997 15.8337 11.3804 15.8337 9.99967ZM13.3337 7.49967C13.7939 7.49967 14.167 7.12658 14.167 6.66634C14.167 6.20611 13.7939 5.83301 13.3337 5.83301C12.8734 5.83301 12.5003 6.20611 12.5003 6.66634C12.5003 7.12658 12.8734 7.49967 13.3337 7.49967ZM13.3337 10.833C13.7939 10.833 14.167 10.4599 14.167 9.99967C14.167 9.53942 13.7939 9.16634 13.3337 9.16634C12.8734 9.16634 12.5003 9.53942 12.5003 9.99967C12.5003 10.4599 12.8734 10.833 13.3337 10.833ZM14.167 13.333C14.167 13.7933 13.7939 14.1663 13.3337 14.1663C12.8734 14.1663 12.5003 13.7933 12.5003 13.333C12.5003 12.8728 12.8734 12.4997 13.3337 12.4997C13.7939 12.4997 14.167 12.8728 14.167 13.333Z" fill="#707070"/>
</svg>
