<svg width="15" height="17" viewBox="0 0 15 17" fill="none" xmlns="http://www.w3.org/2000/svg">
<path d="M12.0553 3.25869C11.1789 2.68889 10.5494 1.7745 10.3512 0.710887C10.3079 0.477537 10.2834 0.241487 10.2834 0H7.48875L7.48325 11.1979C7.43712 12.4514 6.40338 13.458 5.139 13.458C4.74563 13.458 4.37656 13.3604 4.05096 13.1894C3.3021 12.796 2.79199 12.0119 2.79199 11.111C2.79199 9.81675 3.84475 8.76125 5.14175 8.76125C5.38325 8.76125 5.6165 8.802 5.83363 8.86975V6.68013V6.01812C5.60575 5.98825 5.375 5.96663 5.14175 5.96663C2.30631 5.96663 0 8.27287 0 11.1082C0 12.8475 0.868263 14.3886 2.19506 15.3194C3.03076 15.9054 4.04554 16.25 5.14175 16.25C7.97713 16.25 10.2834 13.9437 10.2834 11.1082V5.42933C11.3796 6.21613 12.7228 6.68013 14.1716 6.68013V4.50951V3.88818C13.3901 3.88546 12.663 3.65482 12.0553 3.25869Z" fill="#D9D9D9"/>
</svg>
