<svg width="25" height="21" viewBox="0 0 25 21" fill="none" xmlns="http://www.w3.org/2000/svg">
<path d="M25 2.40507C24.0801 2.81301 23.0916 3.08872 22.0541 3.21271C23.1131 2.57791 23.9264 1.57275 24.3094 0.3751C23.3184 0.962825 22.2206 1.38969 21.0524 1.61975C20.1166 0.622925 18.7838 0 17.3085 0C14.4759 0 12.1792 2.29645 12.1792 5.12894C12.1792 5.53093 12.2247 5.9224 12.3121 6.29778C8.0494 6.08389 4.27009 4.04194 1.74037 0.938863C1.29887 1.69639 1.04594 2.57745 1.04594 3.51741C1.04594 5.29682 1.95151 6.86675 3.32775 7.7865C2.48692 7.75988 1.69611 7.52913 1.00451 7.14501C1.00415 7.16641 1.00415 7.1879 1.00415 7.20949C1.00415 9.69462 2.77214 11.7676 5.11851 12.2388C4.68809 12.356 4.23497 12.4186 3.76715 12.4186C3.43666 12.4186 3.11532 12.3865 2.80222 12.3266C3.45486 14.3644 5.34904 15.8472 7.59345 15.8886C5.83809 17.2642 3.6265 18.0842 1.22353 18.0842C0.809563 18.0842 0.401262 18.06 0 18.0126C2.26984 19.4679 4.96589 20.317 7.8624 20.317C17.2965 20.317 22.4555 12.5015 22.4555 5.72369C22.4555 5.5013 22.4505 5.2801 22.4406 5.06017C23.4427 4.33702 24.3124 3.43365 25 2.40507Z" fill="#D9D9D9"/>
</svg>
